<svg xmlns="http://www.w3.org/2000/svg" width="59.707" height="45.13" viewBox="0 0 59.707 45.13">
  <path id="Path_2" data-name="Path 2" d="M17.987-77.357a8.457,8.457,0,0,1-7.293-4.157A16.658,16.658,0,0,1,7.9-91.03a15.348,15.348,0,0,1,2.726-9.054,8.549,8.549,0,0,1,7.361-3.88,10.214,10.214,0,0,1,8.861,4.439q3.135,4.439,3.135,11.469a37.237,37.237,0,0,1-1.908,11.837,63,63,0,0,1-5.044,9.432,36.776,36.776,0,0,1-7.225,7.954L10.9-64.391q3.272-4.446,4.5-6.481A18.684,18.684,0,0,0,17.987-77.357Zm37.623,0a8.457,8.457,0,0,1-7.293-4.157,16.658,16.658,0,0,1-2.794-9.516,15.348,15.348,0,0,1,2.726-9.054,8.549,8.549,0,0,1,7.361-3.88,10.214,10.214,0,0,1,8.861,4.439q3.135,4.439,3.135,11.469A37.237,37.237,0,0,1,65.7-76.219a63,63,0,0,1-5.044,9.432,36.776,36.776,0,0,1-7.225,7.954l-4.907-5.558q3.272-4.446,4.5-6.481A18.684,18.684,0,0,0,55.611-77.357Z" transform="translate(-7.9 103.964)" fill="#42b2e1"/>
</svg>
