<svg height="139" viewBox="0 0 203 139" width="203" xmlns="http://www.w3.org/2000/svg" xmlns:xlink="http://www.w3.org/1999/xlink"><filter id="a" filterUnits="userSpaceOnUse" height="363" width="588" x="-73" y="617"><feOffset dx="2.5" dy="4.33" in="SourceAlpha" result="offset"/><feGaussianBlur result="blur" stdDeviation="3.873"/><feFlood flood-opacity=".05" result="flood"/><feComposite in2="blur" operator="in" result="composite"/><feBlend in="SourceGraphic" result="blend"/></filter><text fill="#333" font-family="Poppins" font-size="18" font-weight="600" x="-645" y="727.579">Securities token offerings are the digitisation of assets.<tspan dy="33.6" fill="#666" font-size="14" font-weight="300" x="-645">Popular assets in STOs: tokenisation of real estate and properties, fund shares, agricultural produce and data. However, tokenisation of assets is not limited to these. Any item can be tokenised as long as it produces returns to investors or token holders.</tspan></text><text fill="#333" font-family="Poppins" font-size="30" font-weight="600" x="-675.014" y="652.84">What is STO?</text><g fill="#0084ff"><rect height="5" rx="2.5" width="40" x="-625" y="683"/><rect height="5" rx="2.5" width="12" x="-577" y="683"/><rect height="5" rx="2.5" width="12" x="-645" y="683"/></g><rect fill="#fff" filter="url(#a)" height="330" rx="10" width="555" x="-60" y="629"/><text fill="#333" font-family="Poppins" font-size="18" font-weight="600" x="-60" y="664">What qualifies as securities?<tspan dy="43.2" fill="#666" font-weight="300" x="-60">Promising profits or returns to investors without direct work done.</tspan><tspan dy="43.2" fill="#666" font-weight="300" x="-60">Tradable tokens with no utility in its ecosystem.</tspan><tspan dy="43.2" fill="#666" font-weight="300" x="-60">Examples are assets and securities such as bonds, property, fine art pieces and gold.</tspan></text><text fill="#0084ff" font-family="FontAwesome5FreeSolid, &quot;Font Awesome 5 Free&quot;" font-size="18" x="-29.719" y="737.959">check<tspan dy="64.8" x="-29.719">check</tspan><tspan dy="43.2" x="-29.719">check</tspan></text><path d="m-875 1059h1600v150h-1600z" fill="#e5e5e5"/><text fill="#999" font-family="Poppins" font-size="11" font-weight="300" text-anchor="middle" x="-75.123" y="1116.657"><tspan x="-75.123">© 2019 Novum Global Ventures. ALL RIGHTS RESERVED.</tspan></text><path d="m-26.1 1183.06c17.285-60.71 55.207-261.271-157.86-211.08-181.026 42.64-228.056 105.04-207.62 148.83 22.2 47.57 165.184-25.13 234.618 133.38 23.754 54.22 78.495 112.82 130.862-71.13z" fill="#eee" fill-rule="evenodd"/><path d="m269.7 47.848c12.6-44.293 40.252-190.621-115.1-154-131.983 31.108-166.274 76.631-151.374 108.579 16.187 34.708 120.438-18.336 171.062 97.314 17.312 39.559 57.228 82.309 95.412-51.893z" fill="#bee8ff" fill-rule="evenodd"/><text font-family="Poppins" font-size="16" text-anchor="end" x="492.935" y="-29.856"><tspan x="492.935">What we do <tspan font-family="FontAwesome5FreeSolid, &quot;Font Awesome 5 Free&quot;">angle-down</tspan> Resources <tspan>angle-down</tspan> About</tspan></text><path d="m-645-44.26 30.042 30.5v7.76l-30.042-30.5zm24.654-19.353v22.645l-24.654-25.032v7.758l30.042 30.5v-35.872h-5.388zm-24.654 16.241 30.042 30.5v-7.759l-30.042-30.499zm75.925 12.687-18.971-17.642v17.627h-2.948v-24.793l18.971 17.642v-17.536h2.948v24.7zm33.765.264a11.22 11.22 0 0 1 -6.122-1.743 12.73 12.73 0 0 1 -4.37-4.63 12.753 12.753 0 0 1 -1.6-6.3 12.851 12.851 0 0 1 1.6-6.321 12.773 12.773 0 0 1 4.37-4.613 11.221 11.221 0 0 1 6.122-1.743 11.256 11.256 0 0 1 6.139 1.743 12.79 12.79 0 0 1 4.37 4.613 12.861 12.861 0 0 1 1.6 6.321 12.762 12.762 0 0 1 -1.6 6.3 12.739 12.739 0 0 1 -4.37 4.63 11.255 11.255 0 0 1 -6.139 1.744zm0-2.641a8.343 8.343 0 0 0 4.56-1.321 9.869 9.869 0 0 0 3.33-3.61 10.37 10.37 0 0 0 1.266-5.106 10.372 10.372 0 0 0 -1.266-5.101 9.873 9.873 0 0 0 -3.33-3.61 8.343 8.343 0 0 0 -4.56-1.321 8.317 8.317 0 0 0 -4.544 1.321 9.873 9.873 0 0 0 -3.33 3.61 10.329 10.329 0 0 0 -1.283 5.106 10.329 10.329 0 0 0 1.283 5.106 9.869 9.869 0 0 0 3.33 3.61 8.317 8.317 0 0 0 4.544 1.317zm40.891 2.518-11.948-24.844h3.173l8.793 18.012 8.965-18.012h3.174zm42.175.053a9.482 9.482 0 0 1 -6.971-2.8 8.5 8.5 0 0 1 -2.532-6.022v-16.074h2.948v16.075a6.071 6.071 0 0 0 1.786 4.3 6.659 6.659 0 0 0 4.734 1.884 6.948 6.948 0 0 0 4.873-2.236 5.67 5.67 0 0 0 1.717-3.891v-16.132h2.948v16.075a8.225 8.225 0 0 1 -2.41 5.652 10.077 10.077 0 0 1 -7.093 3.169zm57.21-.211h-2.931v-17.167l-10.422 12.043-10.11-11.9v17.026h-2.931v-24.81l13.058 15.389 13.336-15.389v24.81zm-191.091 17.055h4.622v5.216h-.71l-.281-1.37h-.039q-.815 1.562-3.416 1.562a5.548 5.548 0 0 1 -2.69-.629 4.337 4.337 0 0 1 -1.773-1.754 5.314 5.314 0 0 1 -.616-2.595 5.3 5.3 0 0 1 .362-1.986 4.434 4.434 0 0 1 1.023-1.552 4.6 4.6 0 0 1 1.63-1.006 6.091 6.091 0 0 1 2.142-.361 5.853 5.853 0 0 1 2.341.45 4.511 4.511 0 0 1 1.721 1.271l-.9.622a3.786 3.786 0 0 0 -1.376-.973 4.542 4.542 0 0 0 -1.786-.344 4.512 4.512 0 0 0 -2.086.473 3.576 3.576 0 0 0 -1.464 1.363 3.868 3.868 0 0 0 -.538 2.042 4.059 4.059 0 0 0 .531 2.1 3.528 3.528 0 0 0 1.454 1.377 4.543 4.543 0 0 0 2.1.473 3.385 3.385 0 0 0 2.481-.814 3.43 3.43 0 0 0 .818-2.522v-.079h-3.553v-.96zm11.8 4.184h5.353v1.033h-6.422v-9.48h1.069zm15.709-8.645a5.67 5.67 0 0 1 2.706.626 4.412 4.412 0 0 1 1.809 1.754 5.187 5.187 0 0 1 .636 2.592 5.156 5.156 0 0 1 -.362 1.939 4.656 4.656 0 0 1 -1.017 1.559 4.617 4.617 0 0 1 -1.63 1.036 5.884 5.884 0 0 1 -2.142.377 5.945 5.945 0 0 1 -2.113-.364 4.713 4.713 0 0 1 -1.633-1.01 4.492 4.492 0 0 1 -1.04-1.556 5.191 5.191 0 0 1 -.371-1.983 5.42 5.42 0 0 1 .361-2 4.52 4.52 0 0 1 1.024-1.575 4.639 4.639 0 0 1 1.63-1.026 5.949 5.949 0 0 1 2.145-.37zm0 8.851a4.17 4.17 0 0 0 2.96-1.063 3.669 3.669 0 0 0 1.141-2.817 4.031 4.031 0 0 0 -.535-2.1 3.536 3.536 0 0 0 -1.46-1.377 4.564 4.564 0 0 0 -2.106-.473 4.121 4.121 0 0 0 -3 1.059 3.834 3.834 0 0 0 -1.092 2.886 3.854 3.854 0 0 0 .534 2.022 3.631 3.631 0 0 0 1.464 1.374 4.463 4.463 0 0 0 2.097.488zm17.5-3.959a2.3 2.3 0 0 1 1.509.738 2.363 2.363 0 0 1 .531 1.605 2 2 0 0 1 -.978 1.87 6.368 6.368 0 0 1 -3.1.572h-4.31v-9.479h4.31a5.369 5.369 0 0 1 2.911.609 2.152 2.152 0 0 1 .909 1.927 2.16 2.16 0 0 1 -.408 1.374 2.43 2.43 0 0 1 -1.369.768v.013zm-5.275-3.661v3.211h3.241a4.215 4.215 0 0 0 2.04-.4 1.242 1.242 0 0 0 .711-1.129 1.629 1.629 0 0 0 -.254-.96 1.567 1.567 0 0 0 -.858-.54 5.884 5.884 0 0 0 -1.639-.182zm3.241 7.414a7.647 7.647 0 0 0 1.858-.175 1.621 1.621 0 0 0 .906-.5 1.416 1.416 0 0 0 .241-.87 1.368 1.368 0 0 0 -.671-1.268 4.88 4.88 0 0 0 -2.334-.4h-3.241v3.21h3.241zm17.156 1.033-.92-2.237h-5.007l-.919 2.237h-1.16l4.023-9.479h1.134l3.99 9.48h-1.134zm-5.555-3.171h4.264l-2.113-5.124h-.039zm13.231 2.138h5.353v1.033h-6.422v-9.48h1.069zm22.01-2.29.789 2.3h.065l.815-2.3 2.432-6.156h1.095l-3.742 9.48h-1.239l-3.756-9.479h1.141zm18-5.124h-6.259v3.2h5.594v1.02h-5.594v3.2h6.259v1.033h-7.329v-9.486h7.329zm13.408-1.033h1.05v9.48h-.919l-6.181-7.606h-.026v7.606h-1.07v-9.48h.946l6.168 7.772h.032zm6.659 0h7.824v1.033h-3.39v8.447h-1.069v-8.447h-3.365zm20.7 0h1.069v4.965a6.563 6.563 0 0 1 -.26 1.9 4.384 4.384 0 0 1 -.77 1.493 3.37 3.37 0 0 1 -1.307.98 4.513 4.513 0 0 1 -1.816.348 4.547 4.547 0 0 1 -1.825-.348 3.387 3.387 0 0 1 -1.314-.98 4.394 4.394 0 0 1 -.776-1.493 6.459 6.459 0 0 1 -.264-1.9v-4.965h1.069v4.965a4 4 0 0 0 .851 2.7 2.839 2.839 0 0 0 2.259.983 2.8 2.8 0 0 0 2.256-.98 4.066 4.066 0 0 0 .828-2.707zm15.135 3.065a2.7 2.7 0 0 1 -2.041 2.906l2.067 3.508h-1.16l-1.937-3.35c-.043 0-.112 0-.205.007s-.162.007-.2.007h-3.118v3.336h-1.07v-9.479h4.18a3.761 3.761 0 0 1 2.565.8 2.848 2.848 0 0 1 .917 2.265zm-6.594 2.065h3.11q2.418 0 2.418-2.065a1.869 1.869 0 0 0 -.616-1.509 2.717 2.717 0 0 0 -1.8-.523h-3.112v4.1zm19.874-4.1h-6.259v3.2h5.594v1.02h-5.594v3.2h6.259v1.033h-7.328v-9.483h7.328v1.033zm10.291 3.078a7.592 7.592 0 0 1 2.9 1.029 2.022 2.022 0 0 1 .935 1.728 2.337 2.337 0 0 1 -1.1 2.1 5.848 5.848 0 0 1 -3.172.712 7.513 7.513 0 0 1 -2.311-.351 3.545 3.545 0 0 1 -1.685-1.059l.723-.735a3.281 3.281 0 0 0 1.324.808 5.786 5.786 0 0 0 1.949.3 4.789 4.789 0 0 0 2.374-.48 1.387 1.387 0 0 0 .828-1.188 1.223 1.223 0 0 0 -.245-.784 2.167 2.167 0 0 0 -.893-.569 10.834 10.834 0 0 0 -1.848-.5l-.379-.086a12.41 12.41 0 0 1 -1.5-.367 5.282 5.282 0 0 1 -1.01-.427 2.051 2.051 0 0 1 -.613-.52 1.747 1.747 0 0 1 -.307-.6 2.732 2.732 0 0 1 -.081-.705 2.194 2.194 0 0 1 1.02-1.963 5.4 5.4 0 0 1 2.944-.665 5.41 5.41 0 0 1 3.658 1.218l-.75.748a4.591 4.591 0 0 0 -2.908-.94 4.5 4.5 0 0 0 -2.119.42 1.256 1.256 0 0 0 -.783 1.115 1.2 1.2 0 0 0 .193.708 1.78 1.78 0 0 0 .776.513 10.008 10.008 0 0 0 1.705.473z" fill-rule="evenodd"/></svg>